<?xml version="1.0" standalone="no"?><!DOCTYPE svg PUBLIC "-//W3C//DTD SVG 1.1//EN" "http://www.w3.org/Graphics/SVG/1.1/DTD/svg11.dtd"><svg t="1732160172583" class="icon" viewBox="0 0 1024 1024" version="1.1" xmlns="http://www.w3.org/2000/svg" p-id="5365" xmlns:xlink="http://www.w3.org/1999/xlink" width="200" height="200"><path d="M813.76 405.49a15 15 0 0 1-14.85-13.06C780.15 249.09 656.81 141 512 141a15 15 0 1 1 0-30 319.42 319.42 0 0 1 316.65 277.55 15 15 0 0 1-14.89 16.95z" fill="#1296db" p-id="5366"></path><path d="M625.15 1019.49h-226.3a41 41 0 0 1-41-41v-151.2A426 426 0 0 1 342.14 40 421.56 421.56 0 0 1 505.93 4.67a425.83 425.83 0 0 1 160.22 822.62v151.2a41 41 0 0 1-41 41z m-187.3-80h148.3V769.4l28.18-8.72c145.58-45 243.39-177.78 243.39-330.33A345.71 345.71 0 0 0 512 84.62h-5c-188.24 2.63-341.1 158-340.76 346.32 0.27 152.26 98.08 284.75 243.39 329.7l28.18 8.72z" fill="#1296db" p-id="5367"></path><path d="M816.36 440.35m-14.3 0a14.3 14.3 0 1 0 28.6 0 14.3 14.3 0 1 0-28.6 0Z" fill="#1296db" p-id="5368"></path><path d="M632.33 407.3H391.67a40 40 0 1 1 0-80h240.66a40 40 0 0 1 0 80zM669.25 551.08h-314.5a40 40 0 0 1 0-80h314.5a40 40 0 0 1 0 80z" fill="#1296db" p-id="5369"></path></svg>